<svg xmlns="http://www.w3.org/2000/svg" xmlns:xlink="http://www.w3.org/1999/xlink" version="1.1" id="Capa_1" x="0px" y="0px" width="90px" height="90px" viewBox="0 0 90 90" enable-background="new 0 0 90 90" xml:space="preserve">
<path fill="#FFFFFF" d="M66.375,23.092c7.004,7.004,7.004,18.399,0,25.403C59.37,55.5,47.975,55.5,40.97,48.496  c-7.003-7.003-7.003-18.399,0.001-25.404C47.977,16.088,59.371,16.088,66.375,23.092 M71.828,17.639  c-10.026-10.027-26.283-10.027-36.311,0c-10.026,10.027-10.027,26.285,0,36.311s26.285,10.024,36.312-0.001  C81.855,43.922,81.855,27.666,71.828,17.639L71.828,17.639z"/>
<path fill="#FFFFFF" d="M21.89,76.438L38.3,60.029c-1.609-0.858-3.123-1.959-4.478-3.314c-1.355-1.354-2.456-2.867-3.313-4.479  L13.823,68.924c0.848,1.32,1.839,2.573,2.993,3.729C18.354,74.189,20.071,75.443,21.89,76.438z"/>
<path fill="#FFFFFF" d="M14.478,74.988c-1.115-1.114-2.098-2.309-2.965-3.562c-1.357,2.132-1.114,4.989,0.747,6.851  c1.943,1.943,4.967,2.113,7.12,0.549C17.635,77.771,15.985,76.496,14.478,74.988z"/>
<path fill="#FFFFFF" d="M62.672,38.794H44.673c-1.657,0-3-1.343-3-3s1.343-3,3-3h17.999c1.657,0,3,1.343,3,3S64.329,38.794,62.672,38.794z"/>
</svg>